<?xml version="1.0" encoding="utf-8"?>
<!-- Generator: Adobe Illustrator 22.1.0, SVG Export Plug-In . SVG Version: 6.00 Build 0)  -->
<svg version="1.1" xmlns="http://www.w3.org/2000/svg" xmlns:xlink="http://www.w3.org/1999/xlink" x="0px" y="0px"
	 viewBox="0 0 32.1 24" style="enable-background:new 0 0 32.1 24;" xml:space="preserve">
<style type="text/css">
	.st0{opacity:0.44;}
	.st1{display:none;}
	.st2{display:inline;}
</style>
<g id="Layer_2">
	
		<image style="overflow:visible;" width="1134" height="1056" xlink:href="../../../../../Desktop/Screen Shot 2018-04-22 at 10.25.15 AM.png"  transform="matrix(4.071970e-02 0 0 4.071970e-02 -8.0833 -12.6)">
	</image>
</g>
<g id="Layer_3">
	<polygon class="st0" points="5.5,26.4 19.7,-7.1 17.5,-12.5 0,28.6 7.3,28.6 8.3,26.4 	"/>
	<g>
		<polygon class="st0" points="22.9,17.8 27.7,17.8 20.6,0.4 18.1,6.2 		"/>
		<polygon class="st0" points="11.8,21.2 6.8,32.7 12.3,35 17.2,23.4 25.2,23.4 28.8,32.4 31.3,26.7 29.1,21.2 		"/>
	</g>
</g>
<g id="Layer_1" class="st1">
	<title  id="simpleicons-react-icon">React icon</title>
	<circle class="st2" cx="22.8" cy="12" r="2.1"/>
	<path class="st2" d="M16.8,16.3l-0.5-0.1c-3.5-1-5.5-2.5-5.5-4.2s2-3.2,5.5-4.1l0.5-0.2l0.1,0.5c0.4,1.2,0.8,2.4,1.4,3.6l0.1,0.2
		l-0.1,0.2c-0.6,1.2-1,2.3-1.4,3.6C16.9,15.8,16.8,16.3,16.8,16.3z M16,8.9c-2.7,0.8-4.3,1.9-4.3,3.1c0,1.1,1.6,2.3,4.3,3
		c0.3-1,0.7-2,1.2-3C16.8,11,16.4,10,16,8.9z M28.8,16.3l-0.1-0.5c-0.4-1.2-0.8-2.4-1.4-3.6L27.1,12l0.1-0.2c0.6-1.2,1-2.4,1.4-3.6
		l0.1-0.5l0.5,0.1c3.5,0.9,5.5,2.5,5.5,4.2s-2,3.2-5.5,4.1L28.8,16.3z M28.2,12c0.5,1,0.9,2.1,1.2,3c2.7-0.8,4.3-1.9,4.3-3
		s-1.6-2.3-4.3-3C29.1,10,28.8,11,28.2,12z"/>
	<path class="st2" d="M16,8.9l-0.1-0.4c-1-3.5-0.7-6,0.8-6.9s3.9,0.2,6.4,2.7l0.3,0.3L23.1,5c-0.9,1-1.7,1.9-2.5,3l-0.1,0.2h-0.2
		c-1.3,0.1-2.6,0.3-3.8,0.6L16,8.9z M18,2.3c-0.3,0-0.5,0.1-0.7,0.2c-1,0.6-1.2,2.6-0.5,5.2c1.1-0.2,2.1-0.4,3.2-0.5
		c0.6-0.9,1.3-1.7,2.1-2.5C20.5,3.2,19,2.3,18,2.3z M27.5,22.7L27.5,22.7c-1.4,0-3.3-1.1-5.2-3L22,19.4l0.3-0.3
		c0.9-0.9,1.7-1.9,2.4-3l0.1-0.2H25c1.3-0.1,2.5-0.3,3.8-0.6l0.5-0.1l0.1,0.5c1,3.5,0.7,6-0.8,6.9C28.4,22.6,28,22.7,27.5,22.7z
		 M23.5,19.3c1.6,1.5,3,2.4,4.1,2.4l0,0c0.3,0,0.5-0.1,0.7-0.2c1-0.6,1.2-2.6,0.5-5.3c-1.1,0.2-2.1,0.4-3.2,0.5
		C24.9,17.6,24.1,18.5,23.5,19.3z"/>
	<path class="st2" d="M29.5,8.9L29,8.8c-1.2-0.3-2.5-0.5-3.8-0.6H25L24.9,8c-0.7-1.1-1.5-2-2.4-3l-0.3-0.3l0.3-0.3
		c2.5-2.6,4.9-3.6,6.4-2.7s1.8,3.4,0.8,6.9C29.5,8.5,29.5,8.9,29.5,8.9z M25.5,7.2c1.1,0.1,2.2,0.3,3.2,0.5C29.5,5,29.2,3,28.2,2.4
		s-2.8,0.3-4.8,2.2C24.1,5.5,24.9,6.3,25.5,7.2z M18,22.7c-0.4,0-0.8-0.1-1.2-0.3C15.3,21.5,15,19,16,15.5l0-0.5l0.5,0.1
		c1.2,0.3,2.4,0.5,3.8,0.6h0.2l0.1,0.3c0.7,1.1,1.5,2,2.4,3l0.3,0.3L23,19.6C21.2,21.6,19.4,22.7,18,22.7z M16.8,16.2
		c-0.7,2.7-0.5,4.7,0.5,5.3c1,0.6,2.8-0.3,4.8-2.2c-0.7-0.8-1.4-1.7-2.1-2.5C19,16.7,17.9,16.5,16.8,16.2z"/>
	<path class="st2" d="M22.8,16.9c-0.8,0-1.7,0-2.5-0.1H20v-0.2c-0.5-0.7-0.9-1.4-1.3-2.1c-0.6-0.8-0.9-1.5-1.3-2.3L17.2,12l0.1-0.2
		c0.4-0.8,0.7-1.5,1.2-2.2c0.4-0.7,0.9-1.4,1.3-2.1L20,7.3h0.2c1.7-0.1,3.4-0.1,5,0h0.2l0.1,0.2c1,1.4,1.8,2.8,2.5,4.4l0.1,0.2
		L28,12.3c-0.7,1.5-1.6,3-2.5,4.4l-0.1,0.2h-0.2C24.5,16.8,23.5,16.9,22.8,16.9z M20.5,15.8c1.5,0.1,2.9,0.1,4.4,0
		c0.8-1.2,1.6-2.5,2.2-3.8c-0.6-1.3-1.4-2.6-2.2-3.8c-1.5-0.1-2.9-0.1-4.4,0c-0.8,1.2-1.6,2.5-2.2,3.8C19,13.3,19.8,14.6,20.5,15.8z
		"/>
</g>
</svg>
