<?xml version="1.0" encoding="utf-8"?>
<!-- Generator: Adobe Illustrator 22.1.0, SVG Export Plug-In . SVG Version: 6.00 Build 0)  -->
<svg version="1.1" id="Layer_1" xmlns="http://www.w3.org/2000/svg" xmlns:xlink="http://www.w3.org/1999/xlink" x="0px" y="0px"
	 viewBox="0 0 24 24" style="enable-background:new 0 0 24 24;" xml:space="preserve">
<style type="text/css">
	.st0{fill:#444C54;}
</style>
<title  id="simpleicons-react-icon">React icon</title>
<g>
	<path class="st0" d="M24,12.8c0-0.4-0.4-0.3-0.4-0.3S23,13,22.5,13c-0.5-0.1-0.4-1.2-0.4-1.2s0.1-1.1-0.2-1.1
		c-0.3-0.1-0.7,0.3-0.7,0.3s-0.5,0.5-0.7,1.2h-0.1c0,0,0.1-1.1,0-1.4c-0.1-0.1-0.6-0.1-0.7,0.1s-0.5,1.8-0.6,2.5
		c0,0-0.9,0.7-1.6,0.9s-0.9-0.4-0.9-0.4s2.1-0.6,2-2.2s-1.7-1-1.8-0.9c-0.2,0.1-1.1,0.7-1.4,2.2c0,0.1,0,0.3,0,0.3s-0.8,0.5-1.2,0.7
		c0,0,1.2-2.1-0.3-3c-0.7-0.4-1.2,0.5-1.2,0.5s2-2.3,1.6-4.2c-0.2-0.9-0.7-1-1.1-0.9C12.6,6.7,12.3,7,12.3,7s-0.8,1.2-1,3
		s-0.5,3.9-0.5,3.9s-0.4,0.4-0.8,0.4c-0.4,0-0.2-1.1-0.2-1.1s0.3-1.7,0.3-2s0-0.4-0.4-0.5C9.4,10.6,9,11,9,11s-1,1.5-1,1.7l0,0
		l-0.1-0.1c0,0,0.7-2,0-2c-0.6,0-1.1,0.7-1.1,0.7S6.1,12.5,6,12.7l-0.1-0.1c0,0,0.3-1.4,0.2-1.8s-0.4-0.3-0.4-0.3s-0.4-0.1-0.5,0.2
		s-0.5,2.1-0.6,2.6c0,0-1.1,0.8-1.8,0.8s-0.6-0.4-0.6-0.4s2.5-0.9,1.9-2.6c-0.3-0.4-0.7-0.6-1.2-0.6s-1.1,0.3-1.5,1.3
		c-0.2,0.4-0.3,0.9-0.3,1.2l0,0c0,0-0.5,0.1-0.7-0.1c-0.2-0.2-0.4,0-0.4,0s-0.4,0.5,0,0.7s1.1,0.2,1.1,0.2l0,0
		C1.3,14.1,1.5,14.6,2,15c0.8,0.6,2.2,0,2.2,0l0.6-0.3c0,0,0,0.5,0.5,0.6c0.4,0.1,0.6,0,1.4-1.8c0.4-0.9,0.5-0.9,0.5-0.9h0.1
		c0,0-0.3,1.8-0.2,2.3c0.1,0.5,0.7,0.4,0.7,0.4s0.3,0.1,0.6-0.8c0.3-0.9,0.7-1.9,0.7-1.9H9c0,0-0.2,1.8,0.1,2.4
		c0.3,0.6,1.2,0.2,1.2,0.2s0.6-0.3,0.7-0.4c0,0,0.7,0.6,1.7,0.5c2.2-0.4,3-1,3-1s0.4,1,1.5,1c1.3,0.1,2.1-0.7,2.1-0.7s0,0.5,0.5,0.7
		s0.8-0.9,0.8-0.9l0.8-2.1h0.1c0,0,0,1.4,0.8,1.6c0.8,0.2,1.8-0.5,1.8-0.5S24,13.2,24,12.8z M2.3,13c0-1.2,0.8-1.7,1.1-1.5
		c0.3,0.3,0.2,0.8-0.3,1.2S2.3,13,2.3,13z M12.5,8.4c0,0,0.7-1.9,0.9-1S11.9,11,11.9,11C12,10.4,12.5,8.4,12.5,8.4z M13.4,13.5
		c-0.5,1.2-1.6,0.7-1.6,0.7s-0.1-0.4,0.2-1.7s1.2-0.8,1.2-0.8S13.9,12.3,13.4,13.5z M16.6,13c0,0-0.1-0.4,0.3-1.1
		c0.4-0.8,0.7-0.3,0.7-0.3s0.4,0.4-0.1,1C17.2,13,16.6,13,16.6,13z"/>
</g>
</svg>
