<?xml version="1.0" encoding="utf-8"?>
<!-- Generator: Adobe Illustrator 22.1.0, SVG Export Plug-In . SVG Version: 6.00 Build 0)  -->
<svg version="1.1" id="Layer_1" xmlns="http://www.w3.org/2000/svg" xmlns:xlink="http://www.w3.org/1999/xlink" x="0px" y="0px"
	 viewBox="0 0 128 128" style="enable-background:new 0 0 128 128;" xml:space="preserve">
<style type="text/css">
	.st0{fill:#444C54;}
</style>
<path class="st0" d="M64,13.2c16.6,0,18.5,0.1,25.1,0.4c16.8,0.8,24.7,8.7,25.4,25.4c0.3,6.5,0.4,8.5,0.4,25.1s-0.1,18.5-0.4,25.1
	c-0.8,16.7-8.6,24.7-25.4,25.4c-6.5,0.3-8.5,0.4-25.1,0.4s-18.5-0.1-25.1-0.4c-16.8-0.8-24.7-8.8-25.4-25.4
	c-0.3-6.5-0.4-8.5-0.4-25.1s0.1-18.5,0.4-25.1c0.8-16.7,8.6-24.7,25.4-25.4C45.5,13.2,47.4,13.2,64,13.2z M64,2
	C47.2,2,45.1,2.1,38.4,2.4c-22.5,1-35,13.5-36.1,36.1C2.1,45.1,2,47.2,2,64s0.1,19,0.4,25.6c1,22.5,13.5,35,36.1,36.1
	c6.6,0.3,8.7,0.4,25.6,0.4s19-0.1,25.6-0.4c22.5-1,35-13.5,36.1-36.1c0.3-6.6,0.4-8.7,0.4-25.6s-0.1-18.9-0.4-25.6
	c-1-22.5-13.5-35-36.1-36.1C83,2.1,80.8,2,64,2z M64,32.2c-17.6,0-31.8,14.3-31.8,31.8S46.4,95.8,64,95.8S95.8,81.6,95.8,64
	S81.6,32.2,64,32.2z M64,84.7c-11.4,0-20.7-9.2-20.7-20.7c0-11.4,9.3-20.7,20.7-20.7S84.7,52.6,84.7,64S75.4,84.7,64,84.7z
	 M97.1,23.5c-4.1,0-7.4,3.3-7.4,7.4s3.3,7.4,7.4,7.4s7.4-3.3,7.4-7.4S101.2,23.5,97.1,23.5z"/>
</svg>
